<svg xmlns="http://www.w3.org/2000/svg" width="900" height="560" viewBox="0 0 900 560" font-family="Segoe UI, Helvetica, Arial, sans-serif">
<rect x="1" y="1" width="898" height="558" rx="16" fill="#0d1117" stroke="#30363d" stroke-width="1.5"/>
<text x="40" y="54" font-size="30" font-weight="700" fill="#e6edf3">The Autonomy Ladder</text>
<text x="40" y="84" font-size="16" fill="#8b949e">from plain code to a swarm — six rungs of AI autonomy</text>
<line x1="74" y1="154" x2="74" y2="494" stroke="#30363d" stroke-width="2"/>
<g opacity="0.18"><animate attributeName="opacity" dur="11.0s" repeatCount="indefinite" keyTimes="0.0000;0.6990;0.7000;0.7500;0.9000;1.0000" values="0.18;0.18;0.18;1;1;0.18"/><circle cx="74" cy="154" r="21" fill="#ec4899" fill-opacity="0.18" stroke="#ec4899" stroke-width="2"/><text x="74" y="159" font-size="15" font-weight="700" fill="#ec4899" text-anchor="middle">05</text><text x="112" y="151" font-size="21" font-weight="600" fill="#e6edf3">Swarm</text><text x="112" y="174" font-size="14" fill="#8b949e">peers react to peers — no orchestrator</text><line x1="780.0" y1="136.0" x2="808.5316954888546" y2="148.43769410125094" stroke="#ec4899" stroke-width="1.1" stroke-opacity="0.7"/><line x1="780.0" y1="136.0" x2="797.6335575687742" y2="168.56230589874906" stroke="#ec4899" stroke-width="1.1" stroke-opacity="0.7"/><line x1="780.0" y1="136.0" x2="762.3664424312258" y2="168.56230589874906" stroke="#ec4899" stroke-width="1.1" stroke-opacity="0.7"/><line x1="780.0" y1="136.0" x2="751.4683045111453" y2="148.43769410125094" stroke="#ec4899" stroke-width="1.1" stroke-opacity="0.7"/><line x1="808.5316954888546" y1="148.43769410125094" x2="797.6335575687742" y2="168.56230589874906" stroke="#ec4899" stroke-width="1.1" stroke-opacity="0.7"/><line x1="808.5316954888546" y1="148.43769410125094" x2="762.3664424312258" y2="168.56230589874906" stroke="#ec4899" stroke-width="1.1" stroke-opacity="0.7"/><line x1="808.5316954888546" y1="148.43769410125094" x2="751.4683045111453" y2="148.43769410125094" stroke="#ec4899" stroke-width="1.1" stroke-opacity="0.7"/><line x1="797.6335575687742" y1="168.56230589874906" x2="762.3664424312258" y2="168.56230589874906" stroke="#ec4899" stroke-width="1.1" stroke-opacity="0.7"/><line x1="797.6335575687742" y1="168.56230589874906" x2="751.4683045111453" y2="148.43769410125094" stroke="#ec4899" stroke-width="1.1" stroke-opacity="0.7"/><line x1="762.3664424312258" y1="168.56230589874906" x2="751.4683045111453" y2="148.43769410125094" stroke="#ec4899" stroke-width="1.1" stroke-opacity="0.7"/><circle cx="780.0" cy="136.0" r="5" fill="#ec4899" fill-opacity="0.25" stroke="#ec4899" stroke-width="1.6"/><circle cx="808.5316954888546" cy="148.43769410125094" r="5" fill="#ec4899" fill-opacity="0.25" stroke="#ec4899" stroke-width="1.6"/><circle cx="797.6335575687742" cy="168.56230589874906" r="5" fill="#ec4899" fill-opacity="0.25" stroke="#ec4899" stroke-width="1.6"/><circle cx="762.3664424312258" cy="168.56230589874906" r="5" fill="#ec4899" fill-opacity="0.25" stroke="#ec4899" stroke-width="1.6"/><circle cx="751.4683045111453" cy="148.43769410125094" r="5" fill="#ec4899" fill-opacity="0.25" stroke="#ec4899" stroke-width="1.6"/></g>
<g opacity="0.18"><animate attributeName="opacity" dur="11.0s" repeatCount="indefinite" keyTimes="0.0000;0.5690;0.5700;0.6200;0.9000;1.0000" values="0.18;0.18;0.18;1;1;0.18"/><circle cx="74" cy="222" r="21" fill="#a855f7" fill-opacity="0.18" stroke="#a855f7" stroke-width="2"/><text x="74" y="227" font-size="15" font-weight="700" fill="#a855f7" text-anchor="middle">04</text><text x="112" y="219" font-size="21" font-weight="600" fill="#e6edf3">Agentic team</text><text x="112" y="242" font-size="14" fill="#8b949e">many roles share one blackboard</text><rect x="769" y="211" width="22" height="22" rx="5" fill="#a855f7" fill-opacity="0.18" stroke="#a855f7" stroke-width="1.6"/><circle cx="732" cy="208" r="6" fill="#a855f7" fill-opacity="0.25" stroke="#a855f7" stroke-width="1.6"/><line x1="780" y1="222" x2="732" y2="208" stroke="#a855f7" stroke-width="1.6" stroke-opacity="0.7"/><circle cx="828" cy="208" r="6" fill="#a855f7" fill-opacity="0.25" stroke="#a855f7" stroke-width="1.6"/><line x1="780" y1="222" x2="828" y2="208" stroke="#a855f7" stroke-width="1.6" stroke-opacity="0.7"/><circle cx="780" cy="246" r="6" fill="#a855f7" fill-opacity="0.25" stroke="#a855f7" stroke-width="1.6"/><line x1="780" y1="222" x2="780" y2="246" stroke="#a855f7" stroke-width="1.6" stroke-opacity="0.7"/></g>
<g opacity="0.18"><animate attributeName="opacity" dur="11.0s" repeatCount="indefinite" keyTimes="0.0000;0.4390;0.4400;0.4900;0.9000;1.0000" values="0.18;0.18;0.18;1;1;0.18"/><circle cx="74" cy="290" r="21" fill="#6366f1" fill-opacity="0.18" stroke="#6366f1" stroke-width="2"/><text x="74" y="295" font-size="15" font-weight="700" fill="#6366f1" text-anchor="middle">03</text><text x="112" y="287" font-size="21" font-weight="600" fill="#e6edf3">Agent</text><text x="112" y="310" font-size="14" fill="#8b949e">the model picks tools inside a loop</text><rect x="769" y="279" width="22" height="22" rx="5" fill="#6366f1" fill-opacity="0.18" stroke="#6366f1" stroke-width="1.6"/><path d="M 794 284 a 18 18 0 1 1 -10 -16" fill="none" stroke="#6366f1" stroke-width="1.6" stroke-opacity="0.8"/><path d="M 784 266 l 6 2 l -3 6 z" fill="#6366f1"/></g>
<g opacity="0.18"><animate attributeName="opacity" dur="11.0s" repeatCount="indefinite" keyTimes="0.0000;0.3090;0.3100;0.3600;0.9000;1.0000" values="0.18;0.18;0.18;1;1;0.18"/><circle cx="74" cy="358" r="21" fill="#38bdf8" fill-opacity="0.18" stroke="#38bdf8" stroke-width="2"/><text x="74" y="363" font-size="15" font-weight="700" fill="#38bdf8" text-anchor="middle">02</text><text x="112" y="355" font-size="21" font-weight="600" fill="#e6edf3">Workflow</text><text x="112" y="378" font-size="14" fill="#8b949e">a fixed multi-step chain, running on rails</text><rect x="721" y="347" width="22" height="22" rx="5" fill="#38bdf8" fill-opacity="0.18" stroke="#38bdf8" stroke-width="1.6"/><rect x="769" y="347" width="22" height="22" rx="5" fill="#38bdf8" fill-opacity="0.18" stroke="#38bdf8" stroke-width="1.6"/><line x1="743" y1="358" x2="769" y2="358" stroke="#38bdf8" stroke-width="1.6" stroke-opacity="0.7"/><rect x="817" y="347" width="22" height="22" rx="5" fill="#38bdf8" fill-opacity="0.18" stroke="#38bdf8" stroke-width="1.6"/><line x1="791" y1="358" x2="817" y2="358" stroke="#38bdf8" stroke-width="1.6" stroke-opacity="0.7"/></g>
<g opacity="0.18"><animate attributeName="opacity" dur="11.0s" repeatCount="indefinite" keyTimes="0.0000;0.1790;0.1800;0.2300;0.9000;1.0000" values="0.18;0.18;0.18;1;1;0.18"/><circle cx="74" cy="426" r="21" fill="#2dd4bf" fill-opacity="0.18" stroke="#2dd4bf" stroke-width="2"/><text x="74" y="431" font-size="15" font-weight="700" fill="#2dd4bf" text-anchor="middle">01</text><text x="112" y="423" font-size="21" font-weight="600" fill="#e6edf3">Single LLM call</text><text x="112" y="446" font-size="14" fill="#8b949e">one call, no tools, no checking its work</text><rect x="744" y="415" width="22" height="22" rx="5" fill="#2dd4bf" fill-opacity="0.18" stroke="#2dd4bf" stroke-width="1.6"/><line x1="766" y1="426" x2="798" y2="426" stroke="#2dd4bf" stroke-width="1.6" stroke-opacity="0.7"/><circle cx="810" cy="426" r="7" fill="#2dd4bf" fill-opacity="0.25" stroke="#2dd4bf" stroke-width="1.6"/></g>
<g opacity="0.18"><animate attributeName="opacity" dur="11.0s" repeatCount="indefinite" keyTimes="0.0000;0.0490;0.0500;0.1000;0.9000;1.0000" values="0.18;0.18;0.18;1;1;0.18"/><circle cx="74" cy="494" r="21" fill="#3fb950" fill-opacity="0.18" stroke="#3fb950" stroke-width="2"/><text x="74" y="499" font-size="15" font-weight="700" fill="#3fb950" text-anchor="middle">00</text><text x="112" y="491" font-size="21" font-weight="600" fill="#e6edf3">Plain code</text><text x="112" y="514" font-size="14" fill="#8b949e">hard-coded output — no model is called</text><rect x="769" y="483" width="22" height="22" rx="5" fill="#3fb950" fill-opacity="0.18" stroke="#3fb950" stroke-width="1.6"/></g>
<circle cx="74" r="6" fill="#ffffff"><animate attributeName="cy" dur="11.0s" repeatCount="indefinite" keyTimes="0.0000;0.0500;0.1800;0.3100;0.4400;0.5700;0.7000;1.0000" values="494;494;426;358;290;222;154;154"/><animate attributeName="opacity" dur="11.0s" repeatCount="indefinite" keyTimes="0;0.88;1" values="0.9;0.9;0"/></circle>
</svg>